<mxfile host="app.diagrams.net" modified="2024-03-12T22:53:32.119Z" agent="Mozilla/5.0 (Windows NT 10.0; Win64; x64) AppleWebKit/537.36 (KHTML, like Gecko) Chrome/121.0.0.0 Safari/537.36 OPR/107.0.0.0" version="24.0.5" etag="mnTbXWnuxsrtmgATRe9m" type="github">
  <diagram name="PÃ¡gina-1" id="EZqTJ3r36D_hO8A5Plvp">
    <mxGraphModel>
      <root>
        <mxCell id="0" />
        <mxCell id="1" parent="0" />
      </root>
    </mxGraphModel>
  </diagram>
</mxfile>
